<svg width="251" height="125" viewBox="0 0 251 125" fill="none" xmlns="http://www.w3.org/2000/svg">
<path d="M250.5 125C250.5 108.585 247.267 92.3303 240.985 77.1646C234.703 61.9989 225.496 48.219 213.888 36.6117C202.281 25.0043 188.501 15.7969 173.335 9.51506C158.17 3.23322 141.915 -7.17533e-07 125.5 0C109.085 7.17533e-07 92.8303 3.23322 77.6646 9.51506C62.4989 15.7969 48.719 25.0043 37.1116 36.6117C25.5043 48.219 16.2969 61.9989 10.0151 77.1646C3.73322 92.3303 0.499999 108.585 0.5 125L25.5 125C25.5 111.868 28.0866 98.8642 33.112 86.7317C38.1375 74.5991 45.5035 63.5752 54.7893 54.2893C64.0752 45.0035 75.0991 37.6375 87.2317 32.612C99.3642 27.5866 112.368 25 125.5 25C138.632 25 151.636 27.5866 163.768 32.612C175.901 37.6375 186.925 45.0035 196.211 54.2893C205.497 63.5752 212.862 74.5991 217.888 86.7317C222.913 98.8642 225.5 111.868 225.5 125H250.5Z" fill="url(#paint0_linear_73_1465)"/>
<defs>
<linearGradient id="paint0_linear_73_1465" x1="250.5" y1="124.981" x2="0.501342" y2="124.981" gradientUnits="userSpaceOnUse">
<stop stop-color="#FF00D6"/>
<stop offset="1" stop-color="#FF00C7" stop-opacity="0.1"/>
</linearGradient>
</defs>
</svg>
